<svg width="24" height="24" viewBox="0 0 24 24" fill="none" xmlns="http://www.w3.org/2000/svg">
<path d="M11.7071 6.70711C12.0977 6.31658 12.0977 5.68342 11.7071 5.29289C11.3166 4.90237 10.6834 4.90237 10.2929 5.29289L4.29745 11.2884C4.2944 11.2914 4.29137 11.2944 4.28836 11.2975L3.93937 11.6464C3.74411 11.8417 3.74411 12.1583 3.93937 12.3536L4.28836 12.7025C4.29137 12.7056 4.2944 12.7086 4.29745 12.7116L10.2929 18.7071C10.6834 19.0976 11.3166 19.0976 11.7071 18.7071C12.0977 18.3166 12.0977 17.6834 11.7071 17.2929L7.41424 13H19C19.5523 13 20 12.5523 20 12C20 11.4477 19.5523 11 19 11H7.41424L11.7071 6.70711Z" fill="#17163A"/>
</svg>
