<svg width="24" height="24" viewBox="0 0 24 24" fill="none" xmlns="http://www.w3.org/2000/svg">
<path d="M8.05026 14.5355V8.46443C8.05026 7.91215 7.60255 7.46444 7.05026 7.46444C6.49798 7.46443 6.05026 7.91215 6.05026 8.46444V17.4497C6.05026 17.7259 6.27412 17.9497 6.55026 17.9497H7.04575C7.04876 17.9497 7.05177 17.9497 7.05477 17.9497L15.5355 17.9497C16.0878 17.9497 16.5355 17.502 16.5355 16.9497C16.5355 16.3974 16.0878 15.9497 15.5355 15.9497L9.46449 15.9497L17.6569 7.75734C18.0474 7.36681 18.0474 6.73365 17.6569 6.34313C17.2663 5.9526 16.6332 5.9526 16.2427 6.34313L8.05026 14.5355Z" fill="#17163A"/>
</svg>
