<svg width="24" height="24" viewBox="0 0 24 24" fill="none" xmlns="http://www.w3.org/2000/svg">
<path d="M15.9498 9.46444V15.5355C15.9498 16.0878 16.3975 16.5355 16.9498 16.5355C17.502 16.5355 17.9498 16.0878 17.9498 15.5355L17.9498 6.55024C17.9498 6.2741 17.7259 6.05024 17.4498 6.05024L16.9545 6.05024C16.9513 6.05023 16.9481 6.05023 16.945 6.05024L8.46447 6.05024C7.91219 6.05024 7.46447 6.49796 7.46447 7.05024C7.46447 7.60253 7.91219 8.05024 8.46447 8.05024H14.5355L6.34314 16.2426C5.95262 16.6331 5.95262 17.2663 6.34314 17.6568C6.73366 18.0474 7.36683 18.0474 7.75735 17.6568L15.9498 9.46444Z" fill="#17163A"/>
</svg>
