<svg width="24" height="24" viewBox="0 0 24 24" fill="none" xmlns="http://www.w3.org/2000/svg">
<path d="M6.05025 6.55024C6.05025 6.2741 6.27411 6.05024 6.55025 6.05024L7.04544 6.05024C7.04863 6.05023 7.05183 6.05023 7.05502 6.05024L15.5355 6.05024C16.0878 6.05024 16.5355 6.49796 16.5355 7.05024C16.5355 7.60253 16.0878 8.05024 15.5355 8.05024H9.46446L17.6568 16.2426C18.0474 16.6331 18.0474 17.2663 17.6568 17.6568C17.2663 18.0474 16.6331 18.0474 16.2426 17.6568L8.05025 9.46447V15.5355C8.05025 16.0878 7.60254 16.5355 7.05025 16.5355C6.49797 16.5355 6.05025 16.0878 6.05025 15.5355L6.05025 6.55024Z" fill="#17163A"/>
</svg>
