<svg width="24" height="24" viewBox="0 0 24 24" fill="none" xmlns="http://www.w3.org/2000/svg">
<path d="M17.9497 17.4497C17.9497 17.7259 17.7259 17.9497 17.4497 17.9497H16.9543C16.9512 17.9497 16.9482 17.9497 16.9452 17.9497L8.46446 17.9497C7.91218 17.9497 7.46446 17.502 7.46446 16.9497C7.46446 16.3974 7.91218 15.9497 8.46446 15.9497L14.5355 15.9497L6.34314 7.75734C5.95262 7.36681 5.95262 6.73365 6.34314 6.34313C6.73366 5.9526 7.36683 5.9526 7.75735 6.34313L15.9497 14.5355V8.46443C15.9497 7.91215 16.3975 7.46444 16.9497 7.46444C17.502 7.46443 17.9497 7.91215 17.9497 8.46444L17.9497 17.4497Z" fill="#17163A"/>
</svg>
