<svg width="24" height="24" viewBox="0 0 24 24" fill="none" xmlns="http://www.w3.org/2000/svg">
<path d="M8 10.5C8.55228 10.5 9 10.9477 9 11.5V15.5C9 16.0523 8.55228 16.5 8 16.5C7.44772 16.5 7 16.0523 7 15.5V11.5C7 10.9477 7.44772 10.5 8 10.5Z" fill="#17163A"/>
<path d="M17 11.5C17 10.9477 16.5523 10.5 16 10.5C15.4477 10.5 15 10.9477 15 11.5V15.5C15 16.0523 15.4477 16.5 16 16.5C16.5523 16.5 17 16.0523 17 15.5V11.5Z" fill="#17163A"/>
<path d="M12 10.5C12.5523 10.5 13 10.9477 13 11.5V15.5C13 16.0523 12.5523 16.5 12 16.5C11.4477 16.5 11 16.0523 11 15.5V11.5C11 10.9477 11.4477 10.5 12 10.5Z" fill="#17163A"/>
<path fill-rule="evenodd" clip-rule="evenodd" d="M11.2894 3.88604C11.6285 4.32199 11.5499 4.95027 11.114 5.28934L8.91456 7H15.0854L12.886 5.28934C12.4501 4.95027 12.3715 4.32199 12.7106 3.88604C13.0497 3.4501 13.6779 3.37156 14.1139 3.71063L18.3431 7H21C21.5523 7 22 7.44772 22 8C22 8.55228 21.5523 9 21 9H20.8404C20.8403 9.05075 20.8383 9.1019 20.8344 9.15339L20.2131 17.2301C20.0929 18.7931 18.7895 20 17.2219 20H6.77813C5.21052 20 3.90719 18.7931 3.78696 17.2301L3.16568 9.1534C3.16172 9.10191 3.15974 9.05075 3.15967 9H3C2.44772 9 2 8.55228 2 8C2 7.44772 2.44772 7 3 7H5.65692L9.88611 3.71063C10.3221 3.37156 10.9503 3.4501 11.2894 3.88604ZM17.9914 9C17.9966 9.00004 18.0019 9.00004 18.0071 9H18.8403L18.219 17.0767C18.1789 17.5977 17.7445 18 17.2219 18H6.77813C6.25559 18 5.82115 17.5977 5.78107 17.0767L5.15979 9H17.9914Z" fill="#17163A"/>
</svg>
