<svg width="24" height="24" viewBox="0 0 24 24" fill="none" xmlns="http://www.w3.org/2000/svg">
<path d="M12 10C12.5523 10 13 10.4477 13 11V12.5H14.5C15.0523 12.5 15.5 12.9477 15.5 13.5C15.5 14.0523 15.0523 14.5 14.5 14.5H13V16C13 16.5523 12.5523 17 12 17C11.4477 17 11 16.5523 11 16V14.5H9.5C8.94772 14.5 8.5 14.0523 8.5 13.5C8.5 12.9477 8.94772 12.5 9.5 12.5H11V11C11 10.4477 11.4477 10 12 10Z" fill="#17163A"/>
<path fill-rule="evenodd" clip-rule="evenodd" d="M11.2894 3.88604C11.6284 4.32199 11.5499 4.95027 11.1139 5.28934L8.91454 6.99998H15.0855L12.8861 5.28934C12.4501 4.95027 12.3716 4.32199 12.7106 3.88604C13.0497 3.4501 13.678 3.37156 14.1139 3.71063L18.3431 6.99998H21C21.5523 6.99998 22 7.4477 22 7.99998C22 8.55227 21.5523 8.99998 21 8.99998H20.8404C20.8403 9.05073 20.8383 9.10189 20.8344 9.15338L20.2131 17.2301C20.0928 18.7931 18.7895 20 17.2219 20H6.77809C5.21048 20 3.90716 18.7931 3.78693 17.2301L3.16565 9.15338C3.16168 9.10189 3.1597 9.05073 3.15964 8.99998H3C2.44772 8.99998 2 8.55227 2 7.99998C2 7.4477 2.44772 6.99998 3 6.99998H5.65689L9.88606 3.71063C10.322 3.37156 10.9503 3.4501 11.2894 3.88604ZM18.8402 8.99998L18.219 17.0767C18.1789 17.5977 17.7444 18 17.2219 18H6.77809C6.25556 18 5.82112 17.5977 5.78104 17.0767L5.15975 8.99998H18.8402Z" fill="#17163A"/>
</svg>
