<svg width="24" height="24" viewBox="0 0 24 24" fill="none" xmlns="http://www.w3.org/2000/svg">
<path d="M9.5 12.5C8.94772 12.5 8.5 12.9477 8.5 13.5C8.5 14.0523 8.94772 14.5 9.5 14.5H14.5C15.0523 14.5 15.5 14.0523 15.5 13.5C15.5 12.9477 15.0523 12.5 14.5 12.5H9.5Z" fill="#17163A"/>
<path fill-rule="evenodd" clip-rule="evenodd" d="M11.1139 5.28934C11.5499 4.95027 11.6284 4.32199 11.2894 3.88604C10.9503 3.4501 10.322 3.37156 9.88606 3.71063L5.65689 6.99998H3C2.44772 6.99998 2 7.4477 2 7.99998C2 8.55227 2.44772 8.99998 3 8.99998H3.15964C3.1597 9.05073 3.16168 9.10189 3.16565 9.15338L3.78693 17.2301C3.90716 18.7931 5.21048 20 6.77809 20H17.2219C18.7895 20 20.0928 18.7931 20.2131 17.2301L20.8344 9.15338C20.8383 9.10189 20.8403 9.05073 20.8404 8.99998H21C21.5523 8.99998 22 8.55227 22 7.99998C22 7.4477 21.5523 6.99998 21 6.99998H18.3431L14.1139 3.71063C13.678 3.37156 13.0497 3.4501 12.7106 3.88604C12.3716 4.32199 12.4501 4.95027 12.8861 5.28934L15.0855 6.99998H8.91454L11.1139 5.28934ZM5.15975 8.99998L5.78104 17.0767C5.82112 17.5977 6.25556 18 6.77809 18H17.2219C17.7444 18 18.1789 17.5977 18.219 17.0767L18.8402 8.99998H5.15975Z" fill="#17163A"/>
</svg>
