<svg width="24" height="24" viewBox="0 0 24 24" fill="none" xmlns="http://www.w3.org/2000/svg">
<path fill-rule="evenodd" clip-rule="evenodd" d="M3 7.02182V16.9C3 16.916 3.00037 16.9319 3.00112 16.9477C2.98115 17.3326 3.18598 17.711 3.55278 17.8944L11.1056 21.6708C11.3053 21.7707 11.5177 21.8351 11.7336 21.8641C11.8184 21.8875 11.9078 21.9 12 21.9C12.0922 21.9 12.1816 21.8875 12.2664 21.8641C12.4823 21.8351 12.6947 21.7707 12.8944 21.6708L20.4472 17.8944C20.814 17.711 21.0188 17.3326 20.9989 16.9477C20.9996 16.9319 21 16.916 21 16.9V7.02164L21.0002 7.00001C21.0002 6.95908 20.9976 6.91832 20.9926 6.87796C20.9744 6.7283 20.9231 6.58884 20.8463 6.46711C20.8247 6.43268 20.8009 6.39947 20.775 6.3677C20.7013 6.27722 20.6136 6.20198 20.5166 6.14362C20.4876 6.12609 20.4577 6.11 20.4269 6.09544L12.8944 2.32922C12.3314 2.04769 11.6686 2.04769 11.1056 2.32922L3.57308 6.09546C3.54264 6.10985 3.51305 6.12574 3.48439 6.14301C3.38612 6.20201 3.29726 6.27833 3.22291 6.37026C3.19735 6.40183 3.17385 6.43482 3.15248 6.469C3.09583 6.55923 3.05319 6.65914 3.02761 6.76569C3.00882 6.84337 2.99972 6.922 2.99978 7.00001L3 7.02182ZM13 19.382L19 16.382V8.61802L13 11.618V19.382ZM11 11.618L5 8.61802V16.382L11 19.382V11.618ZM12 9.88195L6.23612 7.00001L12 4.11807L17.7639 7.00001L12 9.88195Z" fill="#17163A"/>
</svg>
