<svg width="24" height="24" viewBox="0 0 24 24" fill="none" xmlns="http://www.w3.org/2000/svg">
<path fill-rule="evenodd" clip-rule="evenodd" d="M6.63803 4.12231C6.45694 3.18063 5.63295 2.5 4.67402 2.5H3.00003C2.44775 2.5 2.00003 2.94772 2.00003 3.5C2.00003 4.05228 2.44775 4.5 3.00003 4.5L4.67402 4.5L6.55005 14.2554C6.91224 16.1388 8.56021 17.5 10.4781 17.5H16.6874C18.5044 17.5 20.0932 16.2752 20.5557 14.518L21.8068 9.76348C22.3074 7.86122 20.8726 6 18.9056 6H6.99912L6.63803 4.12231ZM7.38374 8L8.51406 13.8777C8.69516 14.8194 9.51914 15.5 10.4781 15.5H16.6874C17.5959 15.5 18.3903 14.8876 18.6215 14.009L19.8727 9.25449C20.0396 8.62041 19.5613 8 18.9056 8H7.38374Z" fill="#17163A"/>
<path d="M8.75 21.5C7.92157 21.5 7.25 20.8284 7.25 20C7.25 19.1716 7.92157 18.5 8.75 18.5C9.57843 18.5 10.25 19.1716 10.25 20C10.25 20.8284 9.57843 21.5 8.75 21.5Z" fill="#17163A"/>
<path d="M17.5 21.5C16.6716 21.5 16 20.8284 16 20C16 19.1716 16.6716 18.5 17.5 18.5C18.3284 18.5 19 19.1716 19 20C19 20.8284 18.3284 21.5 17.5 21.5Z" fill="#17163A"/>
</svg>
