<svg width="24" height="24" viewBox="0 0 24 24" fill="none" xmlns="http://www.w3.org/2000/svg">
<path d="M17.2929 12.2071C17.6834 12.5976 18.3166 12.5976 18.7071 12.2071C19.0976 11.8166 19.0976 11.1834 18.7071 10.7929L12.3536 4.43932C12.1583 4.24406 11.8417 4.24406 11.6464 4.43932L5.29289 10.7929C4.90237 11.1834 4.90237 11.8166 5.29289 12.2071C5.68342 12.5976 6.31658 12.5976 6.70711 12.2071L12 6.9142L17.2929 12.2071Z" fill="#17163A"/>
<path d="M17.2929 18.2071C17.6834 18.5976 18.3166 18.5976 18.7071 18.2071C19.0976 17.8166 19.0976 17.1834 18.7071 16.7929L12.3536 10.4393C12.1583 10.2441 11.8417 10.2441 11.6464 10.4393L5.29289 16.7929C4.90237 17.1834 4.90237 17.8166 5.29289 18.2071C5.68342 18.5976 6.31658 18.5976 6.70711 18.2071L12 12.9142L17.2929 18.2071Z" fill="#17163A"/>
</svg>
