<svg width="24" height="24" viewBox="0 0 24 24" fill="none" xmlns="http://www.w3.org/2000/svg">
<path d="M7.41421 13L10.7071 9.70711C11.0976 9.31658 11.0976 8.68342 10.7071 8.29289C10.3166 7.90237 9.68342 7.90237 9.29289 8.29289L3.93934 13.6464C3.74408 13.8417 3.74408 14.1583 3.93934 14.3536L9.29289 19.7071C9.68342 20.0976 10.3166 20.0976 10.7071 19.7071C11.0976 19.3166 11.0976 18.6834 10.7071 18.2929L7.41421 15H16C18.2091 15 20 13.2091 20 11V5C20 4.44771 19.5523 4 19 4C18.4477 4 18 4.44771 18 5V11C18 12.1046 17.1046 13 16 13H7.41421Z" fill="#17163A"/>
</svg>
