<svg width="24" height="24" viewBox="0 0 24 24" fill="none" xmlns="http://www.w3.org/2000/svg">
<path d="M10.7071 5.70711C11.0976 5.31658 11.0976 4.68342 10.7071 4.29289C10.3166 3.90237 9.68342 3.90237 9.29289 4.29289L3.93934 9.64645C3.74408 9.84171 3.74408 10.1583 3.93934 10.3536L9.29289 15.7071C9.68342 16.0976 10.3166 16.0976 10.7071 15.7071C11.0976 15.3166 11.0976 14.6834 10.7071 14.2929L7.41421 11H16C17.1046 11 18 11.8954 18 13V19C18 19.5523 18.4477 20 19 20C19.5523 20 20 19.5523 20 19V13C20 10.7909 18.2091 9 16 9H7.41421L10.7071 5.70711Z" fill="#17163A"/>
</svg>
