<svg width="24" height="24" viewBox="0 0 24 24" fill="none" xmlns="http://www.w3.org/2000/svg">
<path d="M15.7071 7.20711C15.3166 7.59763 14.6834 7.59763 14.2929 7.20711L13 5.91421V15.5C13 16.0523 12.5523 16.5 12 16.5C11.4477 16.5 11 16.0523 11 15.5V5.91421L9.70711 7.20711C9.31658 7.59763 8.68342 7.59763 8.29289 7.20711C7.90237 6.81658 7.90237 6.18342 8.29289 5.79289L11.6464 2.43934C11.8417 2.24408 12.1583 2.24408 12.3536 2.43934L15.7071 5.79289C16.0976 6.18342 16.0976 6.81658 15.7071 7.20711Z" fill="#17163A"/>
<path d="M18 8.5C20.2091 8.5 22 10.2909 22 12.5V17.5C22 19.7091 20.2091 21.5 18 21.5H6C3.79086 21.5 2 19.7091 2 17.5V12.5C2 10.2909 3.79086 8.5 6 8.5H8C8.55229 8.5 9 8.94772 9 9.5C9 10.0523 8.55229 10.5 8 10.5H6C4.89543 10.5 4 11.3954 4 12.5V17.5C4 18.6046 4.89543 19.5 6 19.5H18C19.1046 19.5 20 18.6046 20 17.5V12.5C20 11.3954 19.1046 10.5 18 10.5H16C15.4477 10.5 15 10.0523 15 9.5C15 8.94772 15.4477 8.5 16 8.5H18Z" fill="#17163A"/>
</svg>
