<svg width="24" height="24" viewBox="0 0 24 24" fill="none" xmlns="http://www.w3.org/2000/svg">
<path fill-rule="evenodd" clip-rule="evenodd" d="M11.978 7.58581L10.5638 6.1716C9.00165 4.6095 6.46898 4.60946 4.90689 6.17155C3.34482 7.73362 3.34482 10.2662 4.90688 11.8283L11.9779 18.8995L19.0315 11.8458L19.0491 11.8284C20.6111 10.2664 20.6111 7.73371 19.049 6.17161C17.4869 4.60951 14.9543 4.6095 13.3922 6.17158L11.978 7.58581ZM3.4926 13.2426C1.1495 10.8994 1.14956 7.10044 3.49267 4.75733C5.8358 2.4142 9.63478 2.41422 11.9779 4.75737C14.3211 2.41424 18.1201 2.41425 20.4632 4.7574C22.8064 7.10055 22.8064 10.8995 20.4633 13.2427L20.4372 13.2686L13.0385 20.6672C12.4528 21.253 11.503 21.253 10.9172 20.6672L3.4926 13.2426Z" fill="#17163A"/>
</svg>
