<svg width="24" height="24" viewBox="0 0 24 24" fill="none" xmlns="http://www.w3.org/2000/svg">
<path d="M8.65419 10.5407C8.74904 10.7176 8.85069 10.9002 8.95862 11.0856C9.07511 11.2856 9.04584 11.5399 8.88216 11.7036L8.14726 12.4385C7.92293 12.6628 7.54893 12.6242 7.38484 12.3527C7.20197 12.0501 7.0372 11.7573 6.89165 11.4859C6.61852 10.9766 6.40496 10.527 6.25908 10.2033C6.18604 10.0412 6.12966 9.91006 6.09099 9.818C6.07165 9.77196 6.05671 9.73564 6.04631 9.71008L6.03412 9.6799L6.0306 9.67109L6.0291 9.6673L5.74965 8.95947L8.32693 7.01328L5.37715 4.0635C4.79224 5.01929 4.03975 6.64469 4.03493 8.66566C4.03124 10.2181 4.46812 12.0759 5.87261 14.1126C6.01299 14.3161 5.9934 14.5923 5.81854 14.7672L5.09799 15.4878C4.88432 15.7014 4.53067 15.6784 4.35551 15.4321C2.63778 13.0174 2.03008 10.7042 2.03494 8.6609C2.04124 6.0137 3.07481 3.94806 3.78691 2.83463C4.49047 1.73455 5.91549 1.77342 6.70504 2.56297L9.74115 5.59907C10.5999 6.45782 10.5013 7.87749 9.53217 8.60934L8.19252 9.62095C8.31375 9.87968 8.46884 10.1951 8.65419 10.5407Z" fill="#17163A"/>
<path fill-rule="evenodd" clip-rule="evenodd" d="M11.3871 14.0271L20.7071 4.70711C21.0976 4.31658 21.0976 3.68342 20.7071 3.29289C20.3166 2.90237 19.6834 2.90237 19.2929 3.29289L3.29289 19.2929C2.90237 19.6834 2.90237 20.3166 3.29289 20.7071C3.68342 21.0976 4.31658 21.0976 4.70711 20.7071L7.01639 18.3978C10.0004 21.1057 12.8881 22.0077 15.3758 22.0017C18.023 21.9954 20.0886 20.9617 21.202 20.2496C22.302 19.546 22.2631 18.121 21.4736 17.3315L18.4374 14.2954C17.5787 13.4366 16.159 13.5352 15.4272 14.5043L14.4155 15.844C14.1568 15.7228 13.8415 15.5677 13.4959 15.3824C12.8204 15.0202 12.0607 14.5587 11.3871 14.0271ZM9.96488 15.4493L8.43241 16.9818C11.0538 19.3342 13.4469 20.0064 15.371 20.0017C17.392 19.9969 19.0173 19.2443 19.973 18.6594L17.0232 15.7096L15.0771 18.2868L14.37 18.0077L14.3655 18.0059L14.3566 18.0024L14.3265 17.9902C14.3009 17.9798 14.2646 17.9649 14.2186 17.9455C14.1265 17.9069 13.9953 17.8505 13.8333 17.7775C13.5096 17.6316 13.06 17.4181 12.5507 17.145C11.7741 16.7285 10.8228 16.1547 9.96488 15.4493Z" fill="#17163A"/>
</svg>
