<svg width="24" height="24" viewBox="0 0 24 24" fill="none" xmlns="http://www.w3.org/2000/svg">
<path fill-rule="evenodd" clip-rule="evenodd" d="M9.53222 8.60934L8.19257 9.62095C8.3138 9.87967 8.46889 10.1951 8.65425 10.5407C9.15644 11.4771 9.84921 12.5753 10.6553 13.3815C11.4615 14.1876 12.5596 14.8803 13.496 15.3824C13.8415 15.5677 14.1569 15.7228 14.4156 15.844L15.4272 14.5043C16.1591 13.5352 17.5787 13.4366 18.4375 14.2953L21.4736 17.3315C22.2631 18.121 22.302 19.546 21.202 20.2496C20.0886 20.9617 18.0231 21.9954 15.3759 22.0017C12.6927 22.0082 9.54408 20.9583 6.31131 17.7255C3.07855 14.4928 2.02861 11.3442 2.035 8.66089C2.0413 6.01369 3.07486 3.94806 3.78696 2.83463C4.49053 1.73454 5.91555 1.77341 6.7051 2.56296L9.7412 5.59906C10.6 6.45782 10.5014 7.87748 9.53222 8.60934ZM17.0233 15.7096L19.9731 18.6594C19.0173 19.2443 17.392 19.9969 15.3711 20.0017C13.2753 20.0068 10.6231 19.2089 7.72552 16.3113C4.82796 13.4137 4.03 10.7615 4.03499 8.66565C4.0398 6.64468 4.7923 5.01928 5.3772 4.06349L8.32699 7.01328L5.74971 8.95946L6.02915 9.66729L6.03066 9.67108L6.03418 9.67989L6.04637 9.71007C6.05677 9.73563 6.07171 9.77195 6.09105 9.81799C6.12972 9.91005 6.18609 10.0412 6.25914 10.2033C6.40501 10.527 6.61857 10.9766 6.89171 11.4859C7.43036 12.4904 8.23221 13.7868 9.24114 14.7957C10.2501 15.8046 11.5464 16.6064 12.5508 17.145C13.06 17.4181 13.5097 17.6316 13.8333 17.7775C13.9954 17.8505 14.1266 17.9069 14.2186 17.9455C14.2647 17.9649 14.301 17.9798 14.3265 17.9902L14.3567 18.0024L14.3655 18.0059L14.37 18.0077L15.0771 18.2868L17.0233 15.7096Z" fill="#17163A"/>
<path d="M17.4463 6.54485C16.1892 5.28773 14.4282 4.83879 12.8101 5.2022C12.5407 5.26271 12.2579 5.12354 12.1707 4.8615L11.8553 3.91257C11.7681 3.65053 11.9097 3.36562 12.1773 3.29748C14.49 2.70863 17.048 3.31816 18.8605 5.13064C20.673 6.94311 21.2825 9.5012 20.6937 11.8139C20.6255 12.0815 20.3406 12.223 20.0786 12.1359L19.1297 11.8204C18.8676 11.7333 18.7284 11.4505 18.7889 11.1811C19.1524 9.56291 18.7034 7.80196 17.4463 6.54485Z" fill="#17163A"/>
<path d="M13.827 8.5827C13.6035 8.59508 13.3723 8.48692 13.3009 8.27484L12.9517 7.23724C12.8636 6.97553 13.0042 6.68815 13.2758 6.63823C13.4217 6.61141 13.5688 6.59393 13.7163 6.58576C14.6737 6.53273 15.6526 6.87247 16.3856 7.60551C17.1187 8.33855 17.4584 9.31748 17.4054 10.2748C17.3972 10.4223 17.3797 10.5695 17.3529 10.7154C17.303 10.987 17.0156 11.1276 16.7539 11.0395L15.7163 10.6902C15.5042 10.6188 15.3961 10.3876 15.4084 10.1642C15.4313 9.75085 15.2855 9.33379 14.9714 9.01972C14.6574 8.70566 14.2403 8.5598 13.827 8.5827Z" fill="#17163A"/>
</svg>
