<svg width="24" height="24" viewBox="0 0 24 24" fill="none" xmlns="http://www.w3.org/2000/svg">
<path fill-rule="evenodd" clip-rule="evenodd" d="M9.53222 8.60934L8.19257 9.62095C8.3138 9.87967 8.46889 10.1951 8.65424 10.5407C9.15644 11.4771 9.84921 12.5753 10.6553 13.3815C11.4615 14.1876 12.5596 14.8803 13.496 15.3824C13.8415 15.5677 14.1569 15.7228 14.4156 15.844L15.4272 14.5043C16.1591 13.5352 17.5787 13.4366 18.4375 14.2953L21.4736 17.3315C22.2631 18.121 22.302 19.546 21.202 20.2496C20.0886 20.9617 18.0231 21.9954 15.3759 22.0017C12.6927 22.0082 9.54408 20.9583 6.3113 17.7255C3.07855 14.4928 2.02861 11.3442 2.03499 8.66089C2.0413 6.01369 3.07486 3.94806 3.78696 2.83463C4.49053 1.73454 5.91554 1.77341 6.70509 2.56296L9.7412 5.59906C10.6 6.45782 10.5014 7.87748 9.53222 8.60934ZM17.0233 15.7096L19.9731 18.6594C19.0173 19.2443 17.392 19.9969 15.3711 20.0017C13.2753 20.0068 10.6231 19.2089 7.72552 16.3113C4.82796 13.4137 4.03 10.7615 4.03499 8.66565C4.0398 6.64468 4.7923 5.01928 5.3772 4.06349L8.32698 7.01328L5.74971 8.95946L6.02915 9.66729L6.03066 9.67108L6.03417 9.67989L6.04637 9.71007C6.05677 9.73563 6.0717 9.77195 6.09105 9.81799C6.12972 9.91005 6.18609 10.0412 6.25914 10.2033C6.40501 10.527 6.61857 10.9766 6.89171 11.4859C7.43036 12.4904 8.23221 13.7868 9.24113 14.7957C10.2501 15.8046 11.5464 16.6064 12.5508 17.145C13.06 17.4181 13.5097 17.6316 13.8333 17.7775C13.9954 17.8505 14.1266 17.9069 14.2186 17.9455C14.2646 17.9649 14.301 17.9798 14.3265 17.9902L14.3567 18.0024L14.3655 18.0059L14.37 18.0077L15.0771 18.2868L17.0233 15.7096Z" fill="#17163A"/>
<path d="M19.8284 9.41424C19.2761 9.41424 18.8284 8.96653 18.8284 8.41424V6.58581L14.8787 10.5355C14.4882 10.9261 13.855 10.9261 13.4645 10.5355C13.074 10.145 13.074 9.51185 13.4645 9.12133L17.4142 5.1716L15.5858 5.1716C15.0335 5.1716 14.5858 4.72389 14.5858 4.1716C14.5858 3.61932 15.0335 3.1716 15.5858 3.1716H20.3284C20.6046 3.1716 20.8284 3.39546 20.8284 3.6716V8.41424C20.8284 8.96653 20.3807 9.41424 19.8284 9.41424Z" fill="#17163A"/>
</svg>
