<svg width="24" height="24" viewBox="0 0 24 24" fill="none" xmlns="http://www.w3.org/2000/svg">
<path fill-rule="evenodd" clip-rule="evenodd" d="M14.7846 16.1989C11.6462 18.6414 7.10652 18.4203 4.22179 15.5356C1.0976 12.4114 1.0976 7.34604 4.22179 4.22185C7.34599 1.09765 12.4113 1.09765 15.5355 4.22185C18.4202 7.10657 18.6413 11.6462 16.1988 14.7847L20.4853 19.0711C20.8758 19.4616 20.8758 20.0948 20.4853 20.4853C20.0948 20.8758 19.4616 20.8758 19.0711 20.4853L14.7846 16.1989ZM5.63601 14.1213C7.97915 16.4645 11.7781 16.4645 14.1213 14.1213C16.4644 11.7782 16.4644 7.9792 14.1213 5.63606C11.7781 3.29291 7.97915 3.29291 5.63601 5.63606C3.29286 7.9792 3.29286 11.7782 5.63601 14.1213Z" fill="#17163A"/>
</svg>
