<svg width="24" height="24" viewBox="0 0 24 24" fill="none" xmlns="http://www.w3.org/2000/svg">
<path fill-rule="evenodd" clip-rule="evenodd" d="M14.1483 9.97206L12 5.61911L9.85169 9.97206L5.04792 10.6701L8.52396 14.0584L7.70338 18.8427L12 16.5839L16.2966 18.8427L15.476 14.0584L18.9521 10.6701L14.1483 9.97206ZM8.52356 8.14405L2.75516 8.98224C1.93494 9.10143 1.60743 10.1094 2.20095 10.6879L6.375 14.7566L5.38964 20.5017C5.24953 21.3186 6.10696 21.9416 6.84059 21.5559L12 18.8434L17.1594 21.5559C17.893 21.9416 18.7505 21.3186 18.6104 20.5017L17.625 14.7566L21.7991 10.6879C22.3926 10.1094 22.0651 9.10143 21.2448 8.98224L15.4764 8.14405L12.8967 2.91699C12.5299 2.17375 11.4701 2.17375 11.1033 2.91699L8.52356 8.14405Z" fill="#17163A"/>
</svg>
