<svg width="24" height="24" viewBox="0 0 24 24" fill="none" xmlns="http://www.w3.org/2000/svg">
<path d="M7.39125 8.09837C7.00073 8.48889 7.00073 9.12206 7.39125 9.51258C7.78178 9.90311 8.41494 9.90311 8.80547 9.51258L9.51258 8.80548C9.9031 8.41495 9.9031 7.78179 9.51258 7.39126C9.12205 7.00074 8.48889 7.00074 8.09836 7.39126L7.39125 8.09837Z" fill="#17163A"/>
<path fill-rule="evenodd" clip-rule="evenodd" d="M4.07364 13.9731C3.48377 13.3832 3.16614 12.5744 3.19702 11.7408L3.46779 4.43006C3.48717 3.90683 3.90686 3.48713 4.43009 3.46776L11.7408 3.19699C12.5744 3.16611 13.3833 3.48374 13.9731 4.07361L20.8263 10.9267C21.9978 12.0983 21.9978 13.9978 20.8263 15.1694L15.1694 20.8262C13.9978 21.9978 12.0983 21.9978 10.9268 20.8262L4.07364 13.9731ZM12.5589 5.48783L19.4121 12.341C19.8026 12.7315 19.8026 13.3646 19.4121 13.7552L13.7552 19.412C13.3647 19.8025 12.7315 19.8025 12.341 19.412L5.48786 12.5589C5.29123 12.3623 5.18536 12.0927 5.19565 11.8148L5.43205 5.43202L11.8148 5.19562C12.0927 5.18533 12.3623 5.2912 12.5589 5.48783Z" fill="#17163A"/>
</svg>
