<svg width="24" height="24" viewBox="0 0 24 24" fill="none" xmlns="http://www.w3.org/2000/svg">
<path fill-rule="evenodd" clip-rule="evenodd" d="M2.73075 6.05308C3.01335 5.40832 3.85596 5.24962 4.35374 5.7474L7.18714 8.5808L8.2478 8.22724L8.60135 7.16658L5.76796 4.33319C5.27018 3.83541 5.42887 2.99279 6.07363 2.7102C8.45256 1.66751 11.3311 2.11818 13.281 4.06807C15.0552 5.84224 15.5882 8.38525 14.8844 10.6212L20.6463 16.3831C21.8178 17.5546 21.8178 19.4541 20.6463 20.6257C19.4747 21.7973 17.5752 21.7973 16.4036 20.6257L10.6417 14.8638C8.40581 15.5676 5.86279 15.0346 4.08862 13.2605C2.13873 11.3106 1.68806 8.43201 2.73075 6.05308ZM4.19157 8.41365C4.12324 9.64799 4.561 10.9044 5.50283 11.8462C6.85087 13.1943 8.84332 13.5097 10.4931 12.7866L11.1187 12.5124L17.8178 19.2115C18.2084 19.602 18.8415 19.602 19.2321 19.2115C19.6226 18.821 19.6226 18.1878 19.2321 17.7973L12.5329 11.0981L12.8071 10.4726C13.5302 8.82277 13.2148 6.83032 11.8668 5.48228C10.925 4.54044 9.66854 4.10269 8.43421 4.17101L10.0156 5.75237C10.5512 6.28804 10.7383 7.08037 10.4987 7.79904L10.1452 8.8597C9.94609 9.45691 9.47746 9.92554 8.88025 10.1246L7.81959 10.4782C7.10092 10.7177 6.30859 10.5307 5.77292 9.99501L4.19157 8.41365Z" fill="#17163A"/>
</svg>
