<svg width="24" height="24" viewBox="0 0 24 24" fill="none" xmlns="http://www.w3.org/2000/svg">
<path d="M8.54289 7.70711C8.93342 8.09763 9.56658 8.09763 9.95711 7.70711L11.25 6.41421V16C11.25 16.5523 11.6977 17 12.25 17C12.8023 17 13.25 16.5523 13.25 16V6.41421L14.5429 7.70711C14.9334 8.09763 15.5666 8.09763 15.9571 7.70711C16.3476 7.31658 16.3476 6.68342 15.9571 6.29289L12.6036 2.93934C12.4083 2.74408 12.0917 2.74408 11.8964 2.93934L8.54289 6.29289C8.15237 6.68342 8.15237 7.31658 8.54289 7.70711Z" fill="#17163A"/>
<path d="M4 14C4.55228 14 5 14.4477 5 15V17C5 18.1046 5.89543 19 7 19H17C18.1046 19 19 18.1046 19 17V15C19 14.4477 19.4477 14 20 14C20.5523 14 21 14.4477 21 15V17C21 19.2091 19.2091 21 17 21H7C4.79086 21 3 19.2091 3 17V15C3 14.4477 3.44772 14 4 14Z" fill="#17163A"/>
</svg>
