<svg width="40" height="40" viewBox="0 0 40 40" fill="none" xmlns="http://www.w3.org/2000/svg">
<rect x="2" y="2" width="36" height="36" rx="18" fill="#CFE7DC"/>
<path d="M16 22C16 21.4477 16.4477 21 17 21H23C23.5523 21 24 21.4477 24 22C24 22.5523 23.5523 23 23 23H17C16.4477 23 16 22.5523 16 22Z" fill="#0D894F"/>
<path d="M17 17.5C16.4477 17.5 16 17.9477 16 18.5C16 19.0523 16.4477 19.5 17 19.5H23C23.5523 19.5 24 19.0523 24 18.5C24 17.9477 23.5523 17.5 23 17.5H17Z" fill="#0D894F"/>
<path d="M16 25.5C16 24.9477 16.4477 24.5 17 24.5H23C23.5523 24.5 24 24.9477 24 25.5C24 26.0523 23.5523 26.5 23 26.5H17C16.4477 26.5 16 26.0523 16 25.5Z" fill="#0D894F"/>
<path fill-rule="evenodd" clip-rule="evenodd" d="M18 10C16.8954 10 16 10.8954 16 12L15 12C13.3431 12 12 13.3431 12 15V27C12 28.6569 13.3431 30 15 30H25C26.6569 30 28 28.6569 28 27V15C28 13.3431 26.6569 12 25 12H24C24 10.8954 23.1046 10 22 10H18ZM22 12H18V14H22V12ZM16 14H15C14.4477 14 14 14.4477 14 15V27C14 27.5523 14.4477 28 15 28H25C25.5523 28 26 27.5523 26 27V15C26 14.4477 25.5523 14 25 14H24C24 15.1046 23.1046 16 22 16H18C16.8954 16 16 15.1046 16 14Z" fill="#0D894F"/>
<rect x="2" y="2" width="36" height="36" rx="18" stroke="#E7F4EE" strokeWidth="4"/>
</svg>
